<svg id="Layer_1" data-name="Layer 1" xmlns="http://www.w3.org/2000/svg" viewBox="0 0 58.07 56.86"><defs><style>.cls-1{fill:#fff;stroke:#231f20;stroke-width:4.5px;}.cls-1,.cls-2,.cls-3,.cls-4,.cls-5{stroke-miterlimit:10;}.cls-2{fill:#2d4884;stroke:#2d4884;}.cls-2,.cls-3,.cls-4,.cls-5{stroke-width:2px;}.cls-3{fill:#357aa1;stroke:#357aa1;}.cls-4{fill:#6e2f74;stroke:#6e2f74;}.cls-5{fill:#b03172;stroke:#b03172;}</style></defs><rect class="cls-1" x="2.25" y="12.2" width="44.69" height="42.4" rx="6"/><rect class="cls-1" x="11.13" y="2.25" width="44.69" height="42.4" rx="6"/><path class="cls-2" d="M277.34,534.12a3,3,0,0,1-1.25-1.21,3.57,3.57,0,0,1-.45-1.81v-5.77h.93V531a2.75,2.75,0,0,0,.39,1.5,2.44,2.44,0,0,0,1,.9,2.65,2.65,0,0,0,2.45,0,2.44,2.44,0,0,0,1-.91,2.69,2.69,0,0,0,.39-1.49v-5.66h.93v5.78a3.6,3.6,0,0,1-.45,1.81,3.1,3.1,0,0,1-1.25,1.21,3.75,3.75,0,0,1-1.83.43A3.8,3.8,0,0,1,277.34,534.12Z" transform="translate(-253.1 -513.66)"/><path class="cls-3" d="M293.15,526.21H290v-.89h7.24v.89h-3.16v8.15h-.92Z" transform="translate(-253.1 -513.66)"/><path class="cls-4" d="M277.48,545.51h3.77v.79h-3.77Z" transform="translate(-253.1 -513.66)"/><path class="cls-5" d="M293,541.71H289.8v-.89H297v.89h-3.15v8.15H293Z" transform="translate(-253.1 -513.66)"/></svg>