<svg id="Layer_1" data-name="Layer 1" xmlns="http://www.w3.org/2000/svg" viewBox="0 0 338.83 237.34"><defs><style>.cls-1{fill:#fff;}.cls-1,.cls-10,.cls-2,.cls-3,.cls-4,.cls-5,.cls-6,.cls-7,.cls-8,.cls-9{stroke:#231f20;stroke-miterlimit:10;}.cls-1,.cls-2,.cls-3,.cls-4,.cls-5,.cls-6,.cls-7,.cls-8,.cls-9{stroke-width:6px;}.cls-2{fill:none;}.cls-3{fill:#2c4884;}.cls-4{fill:#563077;}.cls-5{fill:#3d4f84;}.cls-6{fill:#6d2f74;}.cls-7{fill:#357aa1;}.cls-8{fill:#8e2f73;}.cls-9{fill:#b03072;}.cls-10{fill:#231f20;stroke-width:2px;}</style></defs><rect class="cls-1" x="3" y="25.54" width="309.6" height="208.8" rx="6"/><rect class="cls-1" x="26.23" y="3" width="309.6" height="208.8" rx="6"/><line class="cls-2" x1="26.23" y1="107.63" x2="335.83" y2="107.63"/><line class="cls-2" x1="26.23" y1="159.95" x2="335.83" y2="159.95"/><line class="cls-2" x1="26" y1="55.32" x2="335.6" y2="55.32"/><line class="cls-2" x1="88.15" y1="107.4" x2="88.15" y2="211.8"/><line class="cls-2" x1="150.07" y1="106.94" x2="150.07" y2="211.34"/><line class="cls-2" x1="211.99" y1="106.94" x2="211.99" y2="211.34"/><line class="cls-2" x1="273.91" y1="2.54" x2="273.91" y2="211.34"/><line class="cls-2" x1="211.99" y1="3" x2="211.99" y2="55.51"/><path class="cls-3" d="M26.23,159.95H88.15a0,0,0,0,1,0,0V211.8a0,0,0,0,1,0,0H32.23a6,6,0,0,1-6-6V159.95A0,0,0,0,1,26.23,159.95Z"/><rect class="cls-4" x="88.15" y="107.63" width="61.92" height="52.32"/><rect class="cls-5" x="150.07" y="159.95" width="61.92" height="51.39"/><rect class="cls-6" x="211.99" y="107.63" width="61.92" height="52.32"/><path class="cls-7" d="M418.74,336.35h55.92a0,0,0,0,1,0,0V388.2a0,0,0,0,1,0,0H412.74a0,0,0,0,1,0,0V342.35A6,6,0,0,1,418.74,336.35Z" transform="translate(748.57 548.15) rotate(-180)"/><rect class="cls-8" x="273.91" y="55.32" width="61.92" height="53.79"/><rect class="cls-9" x="211.99" y="3" width="61.92" height="52.32"/><path class="cls-10" d="M190.64,217.42a7.56,7.56,0,0,1-3-3,8.8,8.8,0,0,1-1.1-4.43V195.94l2.27,0v13.82a6.67,6.67,0,0,0,1,3.65,6,6,0,0,0,2.42,2.22,6.67,6.67,0,0,0,3,.72,6.56,6.56,0,0,0,3-.73,6.09,6.09,0,0,0,2.41-2.22,6.64,6.64,0,0,0,1-3.64V195.92h2.26V210a8.74,8.74,0,0,1-1.09,4.41,7.58,7.58,0,0,1-3,3,10.08,10.08,0,0,1-8.94,0Z" transform="translate(-138.82 -176.4)"/><path class="cls-10" d="M233.73,198.08H226v-2.16h17.67v2.16H236V218h-2.25Z" transform="translate(-138.82 -176.4)"/><path class="cls-10" d="M262.61,207.37h9.2v1.94h-9.2Z" transform="translate(-138.82 -176.4)"/><path class="cls-10" d="M192.36,250.59h-7.71v-2.16h17.68v2.16h-7.71v19.92h-2.26Z" transform="translate(-138.82 -176.4)"/><path class="cls-10" d="M230.08,248.43h3l7.6,22.08h-2.34l-7.22-20.82H232l-7.18,20.82h-2.34ZM225.86,263h11.41v2.12H225.86Z" transform="translate(-138.82 -176.4)"/><path class="cls-10" d="M263.27,248.43h8.53a6.73,6.73,0,0,1,3.21.76,5.46,5.46,0,0,1,2.93,4.93,5.78,5.78,0,0,1-.42,2.2,5.28,5.28,0,0,1-1.22,1.78,5.35,5.35,0,0,1-1.85,1.11l0-.75a7,7,0,0,1,2.46,1.24,5.6,5.6,0,0,1,1.59,2,6.17,6.17,0,0,1,.55,2.62,6.45,6.45,0,0,1-.81,3.29,5.52,5.52,0,0,1-2.29,2.15,7.43,7.43,0,0,1-3.42.75h-9.23Zm10.44,8.93A3.58,3.58,0,0,0,275.1,256a3.71,3.71,0,0,0,.51-1.93,3.41,3.41,0,0,0-.49-1.83,3.34,3.34,0,0,0-1.36-1.24,4.13,4.13,0,0,0-2-.46h-6.24v7.29h6.24A3.93,3.93,0,0,0,273.71,257.36Zm.66,10.5a4,4,0,0,0,1.7-1.38,3.73,3.73,0,0,0,.62-2.13,4.36,4.36,0,0,0-.57-2.21,4.26,4.26,0,0,0-3.76-2.16h-6.82v8.37H272A5.69,5.69,0,0,0,274.37,267.86Z" transform="translate(-138.82 -176.4)"/><path class="cls-10" d="M302.21,248.43h2.26v19.92H315v2.16H302.21Z" transform="translate(-138.82 -176.4)"/><path class="cls-10" d="M337.4,248.43h13.8v2.16H339.65v7.64h9.71v2.16h-9.71v8H351.2v2.16H337.4Z" transform="translate(-138.82 -176.4)"/><path class="cls-10" d="M374.72,248.43h8.52a9.83,9.83,0,0,1,1.55.12,6.35,6.35,0,0,1,2.9,1.2,6,6,0,0,1,1.84,2.36,7.62,7.62,0,0,1,.64,3.18,7.73,7.73,0,0,1-.6,3.08,6.11,6.11,0,0,1-1.74,2.33,6.24,6.24,0,0,1-2.75,1.24l-.78.18H377v8.39h-2.25Zm9.82,11.41a3.85,3.85,0,0,0,1.84-.91,4.42,4.42,0,0,0,1.11-1.64,5.59,5.59,0,0,0,.37-2,5.71,5.71,0,0,0-.37-2,4.35,4.35,0,0,0-1.11-1.62,4,4,0,0,0-1.84-.92,6.28,6.28,0,0,0-1.36-.13H377V260h6.21A6.25,6.25,0,0,0,384.54,259.84Zm-.81,1.68,2.16-.82,4.79,9.81h-2.59Z" transform="translate(-138.82 -176.4)"/></svg>